{
	"asset":{
		"generator":"Khronos glTF Blender I/O v4.3.47",
		"version":"2.0"
	},
	"extensionsUsed":[
		"KHR_materials_specular"
	],
	"scene":0,
	"scenes":[
		{
			"name":"Scene",
			"nodes":[
				0
			]
		}
	],
	"nodes":[
		{
			"mesh":0,
			"name":"14.818.042.70",
			"rotation":[
				0.7071068286895752,
				0,
				0,
				0.7071068286895752
			]
		}
	],
	"materials":[
		{
			"doubleSided":true,
			"extensions":{
				"KHR_materials_specular":{
					"specularFactor":0
				}
			},
			"name":"Opaque(191,191,191).006",
			"pbrMetallicRoughness":{
				"baseColorFactor":[
					0.749019980430603,
					0.749019980430603,
					0.749019980430603,
					1
				],
				"metallicFactor":0
			}
		}
	],
	"meshes":[
		{
			"name":"14.818.042.001",
			"primitives":[
				{
					"attributes":{
						"POSITION":0,
						"NORMAL":1,
						"TEXCOORD_0":2
					},
					"indices":3,
					"material":0
				}
			]
		}
	],
	"accessors":[
		{
			"bufferView":0,
			"componentType":5126,
			"count":1927,
			"max":[
				0.2199031114578247,
				0.46115803718566895,
				0.44803616404533386
			],
			"min":[
				-0.3094899654388428,
				-0.7181689739227295,
				-0.4519638121128082
			],
			"type":"VEC3"
		},
		{
			"bufferView":1,
			"componentType":5126,
			"count":1927,
			"type":"VEC3"
		},
		{
			"bufferView":2,
			"componentType":5126,
			"count":1927,
			"type":"VEC2"
		},
		{
			"bufferView":3,
			"componentType":5123,
			"count":7410,
			"type":"SCALAR"
		}
	],
	"bufferViews":[
		{
			"buffer":0,
			"byteLength":23124,
			"byteOffset":0,
			"target":34962
		},
		{
			"buffer":0,
			"byteLength":23124,
			"byteOffset":23124,
			"target":34962
		},
		{
			"buffer":0,
			"byteLength":15416,
			"byteOffset":46248,
			"target":34962
		},
		{
			"buffer":0,
			"byteLength":14820,
			"byteOffset":61664,
			"target":34963
		}
	],
	"buffers":[
		{
			"byteLength":76484,
			"uri":"porca_rapida-modelo14.bin"
		}
	]
}
