{
	"asset":{
		"generator":"Khronos glTF Blender I/O v4.3.47",
		"version":"2.0"
	},
	"extensionsUsed":[
		"KHR_materials_specular"
	],
	"scene":0,
	"scenes":[
		{
			"name":"Scene",
			"nodes":[
				0
			]
		}
	],
	"nodes":[
		{
			"mesh":0,
			"name":"27.818.048.70",
			"rotation":[
				0.70710688829422,
				0,
				0,
				0.7071066498756409
			]
		}
	],
	"materials":[
		{
			"doubleSided":true,
			"extensions":{
				"KHR_materials_specular":{
					"specularFactor":0
				}
			},
			"name":"Opaque(191,191,191).004",
			"pbrMetallicRoughness":{
				"baseColorFactor":[
					0.749019980430603,
					0.749019980430603,
					0.749019980430603,
					1
				],
				"metallicFactor":0
			}
		}
	],
	"meshes":[
		{
			"name":"27.818.048.001",
			"primitives":[
				{
					"attributes":{
						"POSITION":0,
						"NORMAL":1,
						"TEXCOORD_0":2
					},
					"indices":3,
					"material":0
				}
			]
		}
	],
	"accessors":[
		{
			"bufferView":0,
			"componentType":5126,
			"count":2270,
			"max":[
				0.2406863272190094,
				0.7106875777244568,
				0.6171213388442993
			],
			"min":[
				-0.2705046534538269,
				-0.7657724022865295,
				-0.5828787088394165
			],
			"type":"VEC3"
		},
		{
			"bufferView":1,
			"componentType":5126,
			"count":2270,
			"type":"VEC3"
		},
		{
			"bufferView":2,
			"componentType":5126,
			"count":2270,
			"type":"VEC2"
		},
		{
			"bufferView":3,
			"componentType":5123,
			"count":7056,
			"type":"SCALAR"
		}
	],
	"bufferViews":[
		{
			"buffer":0,
			"byteLength":27240,
			"byteOffset":0,
			"target":34962
		},
		{
			"buffer":0,
			"byteLength":27240,
			"byteOffset":27240,
			"target":34962
		},
		{
			"buffer":0,
			"byteLength":18160,
			"byteOffset":54480,
			"target":34962
		},
		{
			"buffer":0,
			"byteLength":14112,
			"byteOffset":72640,
			"target":34963
		}
	],
	"buffers":[
		{
			"byteLength":86752,
			"uri":"porca_rapida-modelo27.bin"
		}
	]
}
