{
	"asset":{
		"generator":"Khronos glTF Blender I/O v4.3.47",
		"version":"2.0"
	},
	"extensionsUsed":[
		"KHR_materials_specular"
	],
	"scene":0,
	"scenes":[
		{
			"name":"Scene",
			"nodes":[
				0
			]
		}
	],
	"nodes":[
		{
			"mesh":0,
			"name":"05.849.110.45",
			"rotation":[
				0.7071068286895752,
				0,
				0,
				0.7071068286895752
			]
		}
	],
	"materials":[
		{
			"doubleSided":true,
			"extensions":{
				"KHR_materials_specular":{
					"specularFactor":0
				}
			},
			"name":"Opaque(191,191,191).003",
			"pbrMetallicRoughness":{
				"baseColorFactor":[
					0.749019980430603,
					0.749019980430603,
					0.749019980430603,
					1
				],
				"metallicFactor":0
			}
		}
	],
	"meshes":[
		{
			"name":"05.849.110.45",
			"primitives":[
				{
					"attributes":{
						"POSITION":0,
						"NORMAL":1,
						"TEXCOORD_0":2
					},
					"indices":3,
					"material":0
				}
			]
		}
	],
	"accessors":[
		{
			"bufferView":0,
			"componentType":5126,
			"count":1592,
			"max":[
				1.1407825946807861,
				0.3921448886394501,
				1.0205562114715576
			],
			"min":[
				-1.1381484270095825,
				-0.7078551054000854,
				-0.35241779685020447
			],
			"type":"VEC3"
		},
		{
			"bufferView":1,
			"componentType":5126,
			"count":1592,
			"type":"VEC3"
		},
		{
			"bufferView":2,
			"componentType":5126,
			"count":1592,
			"type":"VEC2"
		},
		{
			"bufferView":3,
			"componentType":5123,
			"count":4380,
			"type":"SCALAR"
		}
	],
	"bufferViews":[
		{
			"buffer":0,
			"byteLength":19104,
			"byteOffset":0,
			"target":34962
		},
		{
			"buffer":0,
			"byteLength":19104,
			"byteOffset":19104,
			"target":34962
		},
		{
			"buffer":0,
			"byteLength":12736,
			"byteOffset":38208,
			"target":34962
		},
		{
			"buffer":0,
			"byteLength":8760,
			"byteOffset":50944,
			"target":34963
		}
	],
	"buffers":[
		{
			"byteLength":59704,
			"uri":"presilha_de_fogao.bin"
		}
	]
}
