{
  "accessors": [
    {
      "bufferView": 2,
      "componentType": 5126,
      "count": 65532,
      "max": [
        -0.49234199523925781,
        4.6255779266357422,
        5.5094881057739258
      ],
      "min": [
        -1.1609549522399902,
        2.3922510147094727,
        3.5366520881652832
      ],
      "type": "VEC3"
    },
    {
      "bufferView": 2,
      "byteOffset": 786384,
      "componentType": 5126,
      "count": 65532,
      "max": [
        0.9999992847442627,
        0.99929893016815186,
        0.99611556529998779
      ],
      "min": [
        -0.99999624490737915,
        -0.97996068000793457,
        -0.99762970209121704
      ],
      "type": "VEC3"
    },
    {
      "bufferView": 3,
      "componentType": 5126,
      "count": 65532,
      "max": [
        0.67843139171600342,
        0.67058825492858887,
        0.67058825492858887,
        1
      ],
      "min": [
        0.086274512112140656,
        0.058823529630899429,
        0.050980392843484879,
        1
      ],
      "type": "VEC4"
    },
    {
      "bufferView": 1,
      "componentType": 5126,
      "count": 65532,
      "max": [
        1,
        0.86133599281311035
      ],
      "min": [
        0,
        0.18507799506187439
      ],
      "type": "VEC2"
    },
    {
      "bufferView": 0,
      "componentType": 5125,
      "count": 369675,
      "max": [
        65531
      ],
      "min": [
        0
      ],
      "type": "SCALAR"
    },
    {
      "bufferView": 2,
      "byteOffset": 1572768,
      "componentType": 5126,
      "count": 65532,
      "max": [
        -0.5086820125579834,
        3.9743380546569824,
        4.9351592063903809
      ],
      "min": [
        -1.4932589530944824,
        1.6128150224685669,
        3.2290859222412109
      ],
      "type": "VEC3"
    },
    {
      "bufferView": 2,
      "byteOffset": 2359152,
      "componentType": 5126,
      "count": 65532,
      "max": [
        0.99999791383743286,
        0.99774575233459473,
        0.99999511241912842
      ],
      "min": [
        -0.99999624490737915,
        -0.99997150897979736,
        -0.99991083145141602
      ],
      "type": "VEC3"
    },
    {
      "bufferView": 3,
      "byteOffset": 1048512,
      "componentType": 5126,
      "count": 65532,
      "max": [
        0.62745100259780884,
        0.55686277151107788,
        0.41568627953529358,
        1
      ],
      "min": [
        0.035294119268655777,
        0.031372550874948502,
        0.023529412224888802,
        1
      ],
      "type": "VEC4"
    },
    {
      "bufferView": 1,
      "byteOffset": 524256,
      "componentType": 5126,
      "count": 65532,
      "max": [
        0.99993997812271118,
        0.81566202640533447
      ],
      "min": [
        0.16286499798297882,
        0.00019599999359343201
      ],
      "type": "VEC2"
    },
    {
      "bufferView": 0,
      "byteOffset": 1478700,
      "componentType": 5125,
      "count": 338394,
      "max": [
        65531
      ],
      "min": [
        0
      ],
      "type": "SCALAR"
    },
    {
      "bufferView": 2,
      "byteOffset": 3145536,
      "componentType": 5126,
      "count": 65532,
      "max": [
        -0.50829499959945679,
        2.5811700820922852,
        3.8843550682067871
      ],
      "min": [
        -1.5000679492950439,
        1.4550729990005493,
        3.151810884475708
      ],
      "type": "VEC3"
    },
    {
      "bufferView": 2,
      "byteOffset": 3931920,
      "componentType": 5126,
      "count": 65532,
      "max": [
        0.99997901916503906,
        0.99997204542160034,
        0.99999511241912842
      ],
      "min": [
        -0.99997514486312866,
        -0.99998873472213745,
        -0.99985635280609131
      ],
      "type": "VEC3"
    },
    {
      "bufferView": 3,
      "byteOffset": 2097024,
      "componentType": 5126,
      "count": 65532,
      "max": [
        0.65490198135375977,
        0.63921570777893066,
        0.60392159223556519,
        1
      ],
      "min": [
        0.031372550874948502,
        0.031372550874948502,
        0.019607843831181526,
        1
      ],
      "type": "VEC4"
    },
    {
      "bufferView": 1,
      "byteOffset": 1048512,
      "componentType": 5126,
      "count": 65532,
      "max": [
        0.98218101263046265,
        0.86849802732467651
      ],
      "min": [
        0.039553001523017883,
        0.0035949999000877142
      ],
      "type": "VEC2"
    },
    {
      "bufferView": 0,
      "byteOffset": 2832276,
      "componentType": 5125,
      "count": 335925,
      "max": [
        65531
      ],
      "min": [
        0
      ],
      "type": "SCALAR"
    },
    {
      "bufferView": 2,
      "byteOffset": 4718304,
      "componentType": 5126,
      "count": 27471,
      "max": [
        -0.53966802358627319,
        2.0671648979187012,
        3.7078800201416016
      ],
      "min": [
        -1.4938739538192749,
        1.4550729990005493,
        3.1521151065826416
      ],
      "type": "VEC3"
    },
    {
      "bufferView": 2,
      "byteOffset": 5047956,
      "componentType": 5126,
      "count": 27471,
      "max": [
        0.99995517730712891,
        0.9999886155128479,
        0.99989068508148193
      ],
      "min": [
        -0.99975818395614624,
        -0.99998915195465088,
        -0.99970299005508423
      ],
      "type": "VEC3"
    },
    {
      "bufferView": 3,
      "byteOffset": 3145536,
      "componentType": 5126,
      "count": 27471,
      "max": [
        0.60784316062927246,
        0.5215686559677124,
        0.51372551918029785,
        1
      ],
      "min": [
        0.074509806931018829,
        0.062745101749897003,
        0.039215687662363052,
        1
      ],
      "type": "VEC4"
    },
    {
      "bufferView": 1,
      "byteOffset": 1572768,
      "componentType": 5126,
      "count": 27471,
      "max": [
        0.84213799238204956,
        0.87557697296142578
      ],
      "min": [
        0.15350599586963654,
        0.035406999289989471
      ],
      "type": "VEC2"
    },
    {
      "bufferView": 0,
      "byteOffset": 4175976,
      "componentType": 5125,
      "count": 121950,
      "max": [
        27470
      ],
      "min": [
        0
      ],
      "type": "SCALAR"
    }
  ],
  "asset": {
    "extras": {
      "author": "Archaeological museum (https://sketchfab.com/archmsfbsu)",
      "license": "CC0-1.0 (http://creativecommons.org/publicdomain/zero/1.0/)",
      "source": "https://sketchfab.com/3d-models/no3-f0413d9b76774c7dbdf541c52e03c0b6",
      "title": "Топор №3"
    },
    "generator": "Sketchfab-7.80.0",
    "version": "2.0"
  },
  "bufferViews": [
    {
      "buffer": 0,
      "byteLength": 4663776,
      "byteOffset": 0,
      "name": "floatBufferViews",
      "target": 34963
    },
    {
      "buffer": 0,
      "byteLength": 1792536,
      "byteOffset": 4663776,
      "byteStride": 8,
      "name": "floatBufferViews",
      "target": 34962
    },
    {
      "buffer": 0,
      "byteLength": 5377608,
      "byteOffset": 6456312,
      "byteStride": 12,
      "name": "floatBufferViews",
      "target": 34962
    },
    {
      "buffer": 0,
      "byteLength": 3585072,
      "byteOffset": 11833920,
      "byteStride": 16,
      "name": "floatBufferViews",
      "target": 34962
    }
  ],
  "buffers": [
    {
      "byteLength": 15418992,
      "uri": "scene.bin"
    }
  ],
  "images": [
    {
      "uri": "textures/Ax_03_baseColor.jpeg"
    }
  ],
  "materials": [
    {
      "doubleSided": true,
      "emissiveFactor": [
        0,
        0,
        0
      ],
      "name": "Ax_03",
      "pbrMetallicRoughness": {
        "baseColorFactor": [
          1,
          1,
          1,
          1
        ],
        "baseColorTexture": {
          "index": 0,
          "texCoord": 0
        },
        "metallicFactor": 0,
        "roughnessFactor": 1
      }
    }
  ],
  "meshes": [
    {
      "primitives": [
        {
          "attributes": {
            "COLOR_0": 2,
            "NORMAL": 1,
            "POSITION": 0,
            "TEXCOORD_0": 3
          },
          "indices": 4,
          "material": 0,
          "mode": 4
        }
      ]
    },
    {
      "primitives": [
        {
          "attributes": {
            "COLOR_0": 7,
            "NORMAL": 6,
            "POSITION": 5,
            "TEXCOORD_0": 8
          },
          "indices": 9,
          "material": 0,
          "mode": 4
        }
      ]
    },
    {
      "primitives": [
        {
          "attributes": {
            "COLOR_0": 12,
            "NORMAL": 11,
            "POSITION": 10,
            "TEXCOORD_0": 13
          },
          "indices": 14,
          "material": 0,
          "mode": 4
        }
      ]
    },
    {
      "primitives": [
        {
          "attributes": {
            "COLOR_0": 17,
            "NORMAL": 16,
            "POSITION": 15,
            "TEXCOORD_0": 18
          },
          "indices": 19,
          "material": 0,
          "mode": 4
        }
      ]
    }
  ],
  "nodes": [
    {
      "children": [
        1
      ],
      "name": "RootNode (gltf orientation matrix)",
      "rotation": [
        -0.70710678118654746,
        -0,
        -0,
        0.70710678118654757
      ]
    },
    {
      "children": [
        2
      ],
      "matrix": [
        0.2154344916343689,
        0.97330951690673828,
        0.07909867912530899,
        0,
        0.81236636638641357,
        -0.22358047962188721,
        0.53858393430709839,
        0,
        0.54189378023147583,
        -0.051772452890872955,
        -0.83885085582733154,
        0,
        -5.5981969833374023,
        4.9139056205749512,
        6.4047465324401855,
        1
      ],
      "name": "RootNode (model correction matrix)"
    },
    {
      "children": [
        3,
        4,
        5,
        6
      ],
      "name": "Ax_03.obj.cleaner.materialmerger.gles"
    },
    {
      "mesh": 0,
      "name": ""
    },
    {
      "mesh": 1,
      "name": ""
    },
    {
      "mesh": 2,
      "name": ""
    },
    {
      "mesh": 3,
      "name": ""
    }
  ],
  "samplers": [
    {
      "magFilter": 9729,
      "minFilter": 9987,
      "wrapS": 10497,
      "wrapT": 10497
    }
  ],
  "scene": 0,
  "scenes": [
    {
      "name": "OSG_Scene",
      "nodes": [
        0
      ]
    }
  ],
  "textures": [
    {
      "sampler": 0,
      "source": 0
    }
  ]
}

